<?xml version="1.0" standalone="no"?>
<!DOCTYPE svg PUBLIC "-//W3C//DTD SVG 20010904//EN"
 "http://www.w3.org/TR/2001/REC-SVG-20010904/DTD/svg10.dtd">
<svg version="1.0" xmlns="http://www.w3.org/2000/svg"
 width="150.000000pt" height="150.000000pt" viewBox="0 0 150.000000 150.000000"
 preserveAspectRatio="xMidYMid meet">
<metadata>
Created by potrace 1.11, written by Peter Selinger 2001-2013
</metadata>
<g transform="translate(0.000000,150.000000) scale(0.100000,-0.100000)"
fill="#000000" stroke="none">
<path d="M520 1370 c0 -13 -7 -20 -20 -20 -15 0 -20 -7 -20 -25 0 -20 -5 -25
-25 -25 -18 0 -25 -5 -25 -20 0 -13 -7 -20 -20 -20 -13 0 -20 -7 -20 -20 0
-13 -7 -20 -20 -20 -17 0 -20 -7 -20 -45 0 -41 -2 -45 -25 -45 l-25 0 0 -235
0 -235 25 0 c24 0 25 -2 25 -65 0 -58 2 -65 20 -65 19 0 20 -7 20 -105 0 -98
1 -105 20 -105 15 0 20 -7 20 -25 0 -20 5 -25 25 -25 18 0 25 -5 25 -20 0 -13
7 -20 20 -20 13 0 20 -7 20 -20 0 -13 7 -20 20 -20 15 0 20 -7 20 -25 0 -23 4
-25 45 -25 38 0 45 -3 45 -20 0 -19 7 -20 105 -20 98 0 105 1 105 20 0 17 7
20 45 20 41 0 45 2 45 25 0 18 5 25 20 25 13 0 20 7 20 20 0 13 7 20 20 20 13
0 20 7 20 20 0 15 7 20 25 20 20 0 25 5 25 25 0 18 5 25 20 25 19 0 20 7 20
105 0 98 1 105 20 105 18 0 20 7 20 65 0 58 2 65 20 65 19 0 20 7 20 235 0
228 -1 235 -20 235 -17 0 -20 7 -20 45 0 38 -3 45 -20 45 -13 0 -20 7 -20 20
0 13 -7 20 -20 20 -13 0 -20 7 -20 20 0 15 -7 20 -25 20 -20 0 -25 5 -25 25 0
18 -5 25 -20 25 -13 0 -20 7 -20 20 0 19 -7 20 -235 20 -228 0 -235 -1 -235
-20z m0 -925 c0 -38 -3 -45 -20 -45 -17 0 -20 7 -20 45 0 38 3 45 20 45 17 0
20 -7 20 -45z m510 0 c0 -38 -3 -45 -20 -45 -17 0 -20 7 -20 45 0 38 3 45 20
45 17 0 20 -7 20 -45z"/>
</g>
</svg>
